<svg id="Capa_1" data-name="Capa 1" xmlns="http://www.w3.org/2000/svg" viewBox="0 0 287.51 217.81"><defs><style>.cls-1{fill:#1d1d1b;}</style></defs><title>logo vito</title><path class="cls-1" d="M104.75,175.72H63.64v-6.48c6.28-.73,10.34-2.05,12.44-4,1.57-1.57,2.57-4.07,3-7.62,1.45,1.1,3.07,2.43,4.85,3.88C89.86,166.25,97.18,172.21,104.75,175.72Z"/><path class="cls-1" d="M242.31,41.64V84.93h-7.1c-3.58-11.07-8.71-19.7-15.24-25.67a35,35,0,0,0-24.25-9.41,32.37,32.37,0,0,0-15.57,3.62A65.56,65.56,0,0,0,165,45.81l.14-.06a59.67,59.67,0,0,1,34.7-3,97,97,0,0,1,14.32,4.34l1,.35c5.4,2,9.06,3,11.2,3a6.79,6.79,0,0,0,5.48-2.86,14.07,14.07,0,0,0,2.5-5.93Z"/><path class="cls-1" d="M200.56,110.14c0,.43,0,.88,0,1.33l-.57,9.36c-1.81,16-8,28.76-18.39,38a53.25,53.25,0,0,1-4.57,3.64,24.31,24.31,0,0,1-5.79-7.51c-2.54-5-4.39-12.06-5.49-21.06-.1-1.36-.17-2.59-.22-3.71a18.52,18.52,0,0,0,5.26-1.23,17.83,17.83,0,0,0,5.95-3.93,19.4,19.4,0,0,0,4.5-6.77,22.08,22.08,0,0,0,1.52-8.22c0-5.85-1.77-10.72-5.26-14.5a17.57,17.57,0,0,0-11.26-5.68c-.29-2.49-.64-4.85-1-7-1.44-7.82-3.66-14-6.61-18.44A27.34,27.34,0,0,0,147,54.67c-5.13-2.35-11.46-3.54-18.8-3.54s-12.09,1-14.69,3.15-3.93,6.74-3.93,13.78v84.16c0,7.23,1.29,11.81,3.94,14s7.39,3.2,14.68,3.2a48.61,48.61,0,0,0,15.59-2.29,32.43,32.43,0,0,0,7.87,6.11,118.2,118.2,0,0,1-25.3,2.51c-15.31,0-27.36-9.54-39-18.77-3-2.35-5.76-4.56-8.59-6.6C73,146.16,66,141.88,58.25,141.88c-10,0-14.46,3.89-16.46,7.15-1.91,3.11-2.47,7.16-1.7,11.56l-4.89,4.16c-4.45-4.07-7.56-10-5.64-18.59,2-8.8,7.19-14.63,15.11-16.86,11.63-3.29,25.75,1.82,32.17,8.43l2.58,2.66V68.06c0-6.4-1.1-10.57-3.37-12.77-2.06-2-6.13-3.28-12.41-4V44.8h62.75c11.82,0,22.39,1.36,31.4,4.05A64.74,64.74,0,0,1,177,57.93a55.18,55.18,0,0,1,4.64,3.66C194.18,72.67,200.56,89,200.56,110.14Z"/><path class="cls-1" d="M262.94,113.14v6.5c-6.23.78-10.2,2.11-12.12,4-2.11,2.1-3.13,6.26-3.13,12.72v42.28h-8.23L237.77,173l-.08-.33c-1.85-5.71-4.16-8.48-7.07-8.48-.93,0-2.45.43-7.29,3.56-2.08,1.37-3.79,2.48-5.08,3.31a50,50,0,0,1-13.59,5.83,61.31,61.31,0,0,1-15.75,2,65.46,65.46,0,0,1-23.64-4.07,53.44,53.44,0,0,1-6.46-3,56.61,56.61,0,0,1-11.55-8.42c-.3-.28-.61-.57-.91-.87a66.13,66.13,0,0,1-15.09-23.07,80.3,80.3,0,0,1-5.18-29.33,79.69,79.69,0,0,1,5.1-28.92,64.37,64.37,0,0,1,13.59-21.42,24.21,24.21,0,0,1,9.18,8.1c3.28,4.93,5.61,12.36,6.9,22A17.46,17.46,0,0,0,150,95.55c-3.47,3.77-5.23,8.65-5.23,14.49a22.21,22.21,0,0,0,1.5,8.23,19.46,19.46,0,0,0,4.45,6.76,18.12,18.12,0,0,0,5.95,3.92,17.88,17.88,0,0,0,3.92,1.07c.29,3.45.68,6.66,1.15,9.61l0,.13c1.18,7.32,2.93,13.28,5.2,17.73a26.72,26.72,0,0,0,7.38,9.14c4.51,3.5,10.25,5.27,17.06,5.27,9.65,0,16.83-2.93,21.32-8.7s6.64-14.68,6.64-26.8c0-6.58-1.11-10.84-3.38-13s-5.17-3.12-10.91-3.63c.24-2.33.39-4.55.46-6.62C212.63,113.12,244.32,113.13,262.94,113.14Z"/><path class="cls-1" d="M174.55,98.26a13.54,13.54,0,0,0-7.91-4.3,15.22,15.22,0,0,0-1.53-.19c-.3,0-.61,0-.92,0h-.59a9.1,9.1,0,0,0-.91,0,12.29,12.29,0,0,0-1.5.15A13.51,13.51,0,0,0,153,98.26q-4.18,4.53-4.18,11.78A18.1,18.1,0,0,0,150,116.8a15.5,15.5,0,0,0,3.54,5.39,13.94,13.94,0,0,0,4.63,3,13.13,13.13,0,0,0,2.13.66,12.53,12.53,0,0,0,1.51.26,6,6,0,0,0,.61.06c.3,0,.6.05.9.05h.6a15.7,15.7,0,0,0,5.37-1,13.9,13.9,0,0,0,4.62-3.06,15.53,15.53,0,0,0,3.59-5.4,18,18,0,0,0,1.24-6.75Q178.75,102.79,174.55,98.26Zm-7.61,21a3.77,3.77,0,0,1-1.26,1.81h0a2.87,2.87,0,0,1-1.56.57,2.22,2.22,0,0,1-.37,0,3.52,3.52,0,0,1-.66-.06,2.47,2.47,0,0,1-.47-.11,2.84,2.84,0,0,1-1.06-.65,4,4,0,0,1-1-1.6,13.61,13.61,0,0,1-.61-2.87v0a56.91,56.91,0,0,1-.29-6.34q0-6.86.9-9.29a4.4,4.4,0,0,1,.8-1.38,2.81,2.81,0,0,1,1.52-1,3.7,3.7,0,0,1,.9-.11h.19a2.71,2.71,0,0,1,.41,0,2.66,2.66,0,0,1,1.12.42,3.7,3.7,0,0,1,1.47,2c.05.13.1.28.15.44h0a35.09,35.09,0,0,1,.76,8.84C167.85,114.57,167.55,117.64,166.94,119.26Z"/></svg>