<svg id="Capa_1" data-name="Capa 1" xmlns="http://www.w3.org/2000/svg" viewBox="0 0 509.76 314.28"><defs><style>.cls-1{fill:#fff;}</style></defs><title>logo vito</title><path class="cls-1" d="M102.33,241.85a7.33,7.33,0,0,1-4.55,1.62,5.13,5.13,0,0,1-4.75-2.6c-1-1.67-1.45-4.15-1.45-7.59,0-.52,0-.92,0-1.19s0-.54,0-.77a.51.51,0,0,1,.5-.47h15.41a13.16,13.16,0,0,0-3.18-9.1A10.91,10.91,0,0,0,96,218.31a11.61,11.61,0,0,0-8.9,3.74,13.93,13.93,0,0,0-3.45,9.77,15.38,15.38,0,0,0,1,5.68,12.91,12.91,0,0,0,3,4.47,11.92,11.92,0,0,0,3.78,2.44,12.43,12.43,0,0,0,4.58.85,12.59,12.59,0,0,0,7-1.87,11.42,11.42,0,0,0,4.12-5.13l-1.46-.52A12.71,12.71,0,0,1,102.33,241.85Zm-9.73-20a3.62,3.62,0,0,1,6.68,0c.62,1.37.92,3.56.92,6.7V229a.5.5,0,0,1-.5.5H92.08a.5.5,0,0,1-.5-.51C91.67,225.54,92,223.19,92.6,221.84Z"/><path class="cls-1" d="M124,243v1.41H111.77V243a3.38,3.38,0,0,0,2-1,5,5,0,0,0,.63-3V212.7a3.92,3.92,0,0,0-.74-2.75,3.24,3.24,0,0,0-2.14-.8V207.8c1.45-.07,3-.19,4.59-.37s3.34-.43,5.21-.75v32.39A4.72,4.72,0,0,0,122,242,3.34,3.34,0,0,0,124,243Z"/><path class="cls-1" d="M137.57,209.94a2.85,2.85,0,0,1-1,2.31,4.37,4.37,0,0,1-2.89.91,4.23,4.23,0,0,1-2.86-.91,2.86,2.86,0,0,1-1-2.31,3,3,0,0,1,1.07-2.38,4.58,4.58,0,0,1,5.66,0A3,3,0,0,1,137.57,209.94Z"/><path class="cls-1" d="M140.35,243v1.41H128.11V243a3.35,3.35,0,0,0,2-1,4.94,4.94,0,0,0,.64-3V224a3.93,3.93,0,0,0-.7-2.77,3.24,3.24,0,0,0-2.12-.74V219.1q2.31-.12,4.77-.3c1.64-.12,3.33-.27,5-.44v20.71a4.92,4.92,0,0,0,.64,3A3.28,3.28,0,0,0,140.35,243Z"/><path class="cls-1" d="M167.26,239.37a14,14,0,0,1-4.51,4.34,12.11,12.11,0,0,1-6.16,1.6,11.69,11.69,0,0,1-8.91-3.68,15.28,15.28,0,0,1,.21-19.57,12.86,12.86,0,0,1,9.64-3.75,11.13,11.13,0,0,1,6.91,2.07,6,6,0,0,1,2.66,5,3.47,3.47,0,0,1-1,2.63,3.69,3.69,0,0,1-2.7,1,3.42,3.42,0,0,1-2.37-.8,2.57,2.57,0,0,1-.88-2,3.08,3.08,0,0,1,.29-1.3,3.82,3.82,0,0,1,.89-1.18l.82-.77a2,2,0,0,0,.43-.53,1.4,1.4,0,0,0,.16-.66c0-.86-1-1.36-1.38-1.52a6.55,6.55,0,0,0-2.77-.56,5.42,5.42,0,0,0-5.06,2.84c-1,1.82-1.53,4.58-1.53,8.44s.55,6.93,1.64,8.87a5.72,5.72,0,0,0,5.32,3.05,7.15,7.15,0,0,0,3.82-1.19,15.27,15.27,0,0,0,3.4-3Z"/><path class="cls-1" d="M180.34,209.94a2.87,2.87,0,0,1-1,2.31,4.4,4.4,0,0,1-2.9.91,4.22,4.22,0,0,1-2.85-.91,2.87,2.87,0,0,1-1-2.31,3,3,0,0,1,1.08-2.38,4.58,4.58,0,0,1,5.66,0A3,3,0,0,1,180.34,209.94Z"/><path class="cls-1" d="M183.13,243v1.41H170.88V243a3.32,3.32,0,0,0,2-1,4.87,4.87,0,0,0,.64-3V224a4,4,0,0,0-.69-2.77,3.27,3.27,0,0,0-2.12-.74V219.1c1.54-.08,3.12-.18,4.77-.3s3.33-.27,5-.44v20.71a4.94,4.94,0,0,0,.64,3A3.28,3.28,0,0,0,183.13,243Z"/><path class="cls-1" d="M212.7,241.91c-.08-.09-.13-.09-.15-.09a2.36,2.36,0,0,0-.66.23c-1.49.65-2.07.14-2.34-.22a2.18,2.18,0,0,1-.34-1.32V227.77c0-3.25-.87-5.66-2.57-7.17s-4.48-2.29-8.18-2.29a14.29,14.29,0,0,0-7.49,1.75c-1.84,1.13-2.74,2.51-2.74,4.21a3,3,0,0,0,1,2.35,4.27,4.27,0,0,0,5.18,0,2.62,2.62,0,0,0,.94-2.08,3.35,3.35,0,0,0-.12-.89,2.82,2.82,0,0,0-.29-.71l-.72-1.11-.11-.19a1.09,1.09,0,0,1-.22-.55c0-.73.89-1.1,1.18-1.22a5.81,5.81,0,0,1,2.21-.39,5,5,0,0,1,4.06,1.45c.79,1,1.18,2.59,1.18,5v3.63a.49.49,0,0,1-.46.49c-5.16.41-9,1.37-11.51,2.87a6.68,6.68,0,0,0-3.6,6,5.85,5.85,0,0,0,1.84,4.48,6.57,6.57,0,0,0,4.74,1.76,10,10,0,0,0,4.29-1,17.77,17.77,0,0,0,4.37-3.09.52.52,0,0,1,.46-.12.51.51,0,0,1,.36.32,5.89,5.89,0,0,0,1.78,2.81,4.48,4.48,0,0,0,2.83.85,6.72,6.72,0,0,0,3.63-1.06c1-.64,1.59-1.26,1.59-1.79A.34.34,0,0,0,212.7,241.91Zm-11.25-2a4.07,4.07,0,0,1-3.71,2,4,4,0,0,1-3-1.11,4.15,4.15,0,0,1-1.07-3,5.23,5.23,0,0,1,2.11-4.33,13,13,0,0,1,6.09-2.16.52.52,0,0,1,.38.1.52.52,0,0,1,.19.36c0,.71.08,1.24.08,1.57s0,.65,0,.93A11,11,0,0,1,201.45,239.89Z"/><path class="cls-1" d="M236.74,237.17a7.75,7.75,0,0,1-2.31,5.89,8.78,8.78,0,0,1-6.27,2.2,15.83,15.83,0,0,1-5.09-.89,18.87,18.87,0,0,0-2.95-.94,1.87,1.87,0,0,0-1.26.51,3.75,3.75,0,0,0-.77.95h-1.17v-8.37h1.48a17.9,17.9,0,0,0,3.75,5.49,7,7,0,0,0,4.78,1.88,5.24,5.24,0,0,0,3.47-1.14,3.76,3.76,0,0,0,1.4-3c0-1.89-1.81-3.5-5.54-4.91l-.83-.32c-3.39-1.3-5.76-2.62-7.06-3.94a6.44,6.44,0,0,1-1.89-4.77,6.85,6.85,0,0,1,2.31-5.39,8.9,8.9,0,0,1,6.14-2.1,12.13,12.13,0,0,1,4.19.81,11.69,11.69,0,0,0,2.67.87,1.83,1.83,0,0,0,1.29-.5,2.06,2.06,0,0,0,.55-.86h1.24v7h-1.4a12.09,12.09,0,0,0-3.18-4.38,6.9,6.9,0,0,0-4.47-1.64,5.76,5.76,0,0,0-3.52,1,3.27,3.27,0,0,0-1.42,2.75c0,1.75,1.83,3.26,5.61,4.62l.93.34c3.62,1.32,6.11,2.65,7.42,4A6.53,6.53,0,0,1,236.74,237.17Z"/><path class="cls-1" d="M292.59,227.41V229a5.92,5.92,0,0,0-3.3,1.13c-.6.6-.89,1.76-.89,3.56v11.54h-2.11l-.45-1.51a.29.29,0,0,0,0-.09c-.19-.6-.78-2.4-2-2.4-.27,0-.7.12-2.05,1l-1.4.91a13.46,13.46,0,0,1-3.71,1.59,16.85,16.85,0,0,1-4.31.55,17.92,17.92,0,0,1-6.47-1.12,15.14,15.14,0,0,1-5.17-3.35,18.1,18.1,0,0,1-4.13-6.31,22.11,22.11,0,0,1-1.42-8,21.75,21.75,0,0,1,1.4-7.92,17.6,17.6,0,0,1,4.1-6.25,16,16,0,0,1,5.19-3.45,16.4,16.4,0,0,1,9.5-.81,27.75,27.75,0,0,1,3.92,1.19l.29.1a10.79,10.79,0,0,0,3.1.82,2,2,0,0,0,1.58-.82,3.86,3.86,0,0,0,.69-1.6h2v11.73h-1.8a16.16,16.16,0,0,0-4.2-7,9.74,9.74,0,0,0-6.72-2.61,8.2,8.2,0,0,0-7.57,4.25c-1.58,2.73-2.38,6.95-2.38,12.54,0,6.12.64,10.35,2,12.94a7.1,7.1,0,0,0,6.8,4c2.69,0,4.68-.81,5.94-2.42s1.84-4.07,1.84-7.43c0-1.84-.31-3-1-3.64s-1.71-.9-3.53-1.06v-1.61Z"/><path class="cls-1" d="M316.85,222.05a12.46,12.46,0,0,0-17.8,0,13.92,13.92,0,0,0-3.46,9.77,15.08,15.08,0,0,0,1,5.63,12.69,12.69,0,0,0,2.93,4.45,11.49,11.49,0,0,0,3.8,2.51,12.91,12.91,0,0,0,9.18,0,11.4,11.4,0,0,0,3.81-2.52,12.91,12.91,0,0,0,3-4.47,15,15,0,0,0,1-5.61A13.85,13.85,0,0,0,316.85,222.05Zm-5.27,19.11a3.69,3.69,0,0,1-3.63,2.73,3.76,3.76,0,0,1-3.67-2.73c-.62-1.67-.93-4.73-.93-9.34s.31-7.72.93-9.4a3.76,3.76,0,0,1,3.67-2.74,3.68,3.68,0,0,1,3.63,2.74c.63,1.69.94,4.76.94,9.4S312.21,239.48,311.58,241.16Z"/><path class="cls-1" d="M351.75,244.48c-1.76.1-3.4.22-4.9.34s-2.83.24-4.11.38v-5.06a.5.5,0,0,0-.35-.48.49.49,0,0,0-.56.19,14.53,14.53,0,0,1-4.1,4.08,8.65,8.65,0,0,1-4.6,1.33c-2.29,0-3.88-.76-4.87-2.31s-1.53-4.35-1.53-8.17V224a4,4,0,0,0-.69-2.78,3.34,3.34,0,0,0-2.2-.74V219.1c1.85-.11,3.58-.23,5.2-.35s3-.24,4.51-.39v17.9a10,10,0,0,0,.66,4.39,2.7,2.7,0,0,0,2.57,1.37,4.36,4.36,0,0,0,3.91-2.49,13.08,13.08,0,0,0,1.33-6.4V224a4.06,4.06,0,0,0-.68-2.79,3.33,3.33,0,0,0-2.18-.72v-1.43c1.83-.1,3.56-.22,5.17-.34s3.07-.25,4.54-.39v21.18a4,4,0,0,0,.68,2.78,3.27,3.27,0,0,0,2.18.73Z"/><path class="cls-1" d="M377,223.06a3.4,3.4,0,0,1-1,2.55,3.51,3.51,0,0,1-2.58.95,3,3,0,0,1-2.05-.68,2,2,0,0,1-.78-1.61,1.83,1.83,0,0,1,0-.21l.07-.32.24-1a1.5,1.5,0,0,0,.05-.26,2.54,2.54,0,0,0,0-.31,1.22,1.22,0,0,0-.39-.92,1.44,1.44,0,0,0-1-.32c-1.24,0-2.3,1.06-3.26,3.23a18.69,18.69,0,0,0-1.34,7.51v7.42a5.09,5.09,0,0,0,.72,3.08,3,3,0,0,0,2.47,1H369v1.32H355.59V243a3.35,3.35,0,0,0,2-1,4.94,4.94,0,0,0,.64-3V224c0-1.46-.22-2.35-.68-2.81a3.25,3.25,0,0,0-2.13-.7v-1.43c1.75-.1,3.37-.22,4.87-.34s2.79-.24,4.12-.38v5.56a.51.51,0,0,0,.39.49.5.5,0,0,0,.56-.28,11.19,11.19,0,0,1,3-4.11,6,6,0,0,1,3.82-1.3,4.86,4.86,0,0,1,3.47,1.24A4,4,0,0,1,377,223.06Z"/><path class="cls-1" d="M423.15,243v1.41H411.07v-1.39a3.18,3.18,0,0,0,2-1,5,5,0,0,0,.64-3V227.73a9.92,9.92,0,0,0-.67-4.39,2.69,2.69,0,0,0-2.55-1.37,4.37,4.37,0,0,0-3.92,2.47,13,13,0,0,0-1.34,6.42v8.21a5,5,0,0,0,.66,3,3,3,0,0,0,2,1l0,1.39H395.7v-1.39a3.16,3.16,0,0,0,2-1,4.84,4.84,0,0,0,.68-3V227.73a9.75,9.75,0,0,0-.68-4.39,2.71,2.71,0,0,0-2.56-1.37,4.44,4.44,0,0,0-3.95,2.48,12.91,12.91,0,0,0-1.36,6.41v8.21a4.91,4.91,0,0,0,.68,3,3.16,3.16,0,0,0,2,1v1.39H380.38V243a3.32,3.32,0,0,0,2-1,4.94,4.94,0,0,0,.64-3V224a4,4,0,0,0-.7-2.74,3.17,3.17,0,0,0-2.11-.77v-1.43c1.75-.1,3.37-.22,4.87-.34s2.79-.24,4.12-.38v5.46a.5.5,0,0,0,.91.28,14.37,14.37,0,0,1,4.09-4.05,8.74,8.74,0,0,1,4.58-1.33,5.93,5.93,0,0,1,3.89,1.21,6.46,6.46,0,0,1,2.06,3.66.51.51,0,0,0,.39.37.49.49,0,0,0,.5-.19,14.44,14.44,0,0,1,4.06-3.83,8.67,8.67,0,0,1,4.42-1.22c2.29,0,3.89.76,4.88,2.32s1.55,4.37,1.55,8.18v9.84a4.92,4.92,0,0,0,.64,3A3.31,3.31,0,0,0,423.15,243Z"/><path class="cls-1" d="M445.64,241.85a7.33,7.33,0,0,1-4.55,1.62,5.13,5.13,0,0,1-4.75-2.6c-1-1.66-1.45-4.15-1.45-7.59,0-.52,0-.92,0-1.19s0-.54,0-.77a.51.51,0,0,1,.5-.47h15.41a13.14,13.14,0,0,0-3.18-9.1,10.91,10.91,0,0,0-8.38-3.44,11.61,11.61,0,0,0-8.9,3.74,13.93,13.93,0,0,0-3.45,9.77,15.38,15.38,0,0,0,1,5.68,12.82,12.82,0,0,0,3,4.47,11.92,11.92,0,0,0,3.78,2.44,12.43,12.43,0,0,0,4.58.85,12.59,12.59,0,0,0,7-1.87,11.42,11.42,0,0,0,4.12-5.13l-1.46-.52A12.71,12.71,0,0,1,445.64,241.85Zm-9.73-20a3.43,3.43,0,0,1,3.3-2.21,3.52,3.52,0,0,1,3.38,2.23c.62,1.37.92,3.56.92,6.7V229a.5.5,0,0,1-.5.5h-7.62a.5.5,0,0,1-.5-.51C435,225.53,435.31,223.19,435.91,221.84Z"/><path class="cls-1" d="M471.18,235.34c0,3.19-.68,5.68-2,7.38a6.45,6.45,0,0,1-5.52,2.54c-2.2,0-3.72-.63-4.64-1.91s-1.43-3.62-1.43-6.84V220.94a.5.5,0,0,0-.5-.5h-2.53V219a10.59,10.59,0,0,0,5-3.55,18,18,0,0,0,3-6.73h1.83v9.91a.5.5,0,0,0,.5.5h5.42v1.32H465a.5.5,0,0,0-.5.5v15.27a12.4,12.4,0,0,0,.46,4c.45,1.26,1.23,1.53,1.81,1.53.91,0,1.64-.65,2.15-1.92a15.39,15.39,0,0,0,.88-4.43Z"/><path class="cls-1" d="M124.06,257.92h7.22c4.67,0,8,1.69,8,6.49a6.25,6.25,0,0,1-5.21,6.47L140,281h-3.3l-5.58-9.76H127V281h-2.92Zm6.78,10.92c3.61,0,5.58-1.45,5.58-4.43s-2-4.11-5.58-4.11H127v8.54Z"/><path class="cls-1" d="M151.55,272.44c0-5.52,3.73-9,7.68-9,4.33,0,6.78,3.14,6.78,8a11.5,11.5,0,0,1-.12,1.63H154.4c.19,3.64,2.42,6,5.65,6a7.42,7.42,0,0,0,4.27-1.34l1,1.88a10.13,10.13,0,0,1-5.65,1.76C155.19,281.36,151.55,278.06,151.55,272.44ZM163.5,271c0-3.42-1.57-5.27-4.23-5.27-2.42,0-4.55,1.95-4.9,5.27Z"/><path class="cls-1" d="M177.72,279l1.41-1.88a7.75,7.75,0,0,0,5.05,2c2.26,0,3.36-1.19,3.36-2.67,0-1.76-2-2.51-3.89-3.23-2.39-.88-5-2-5-4.93,0-2.69,2.2-4.83,5.9-4.83a8.64,8.64,0,0,1,5.27,1.92l-1.38,1.85a6.22,6.22,0,0,0-3.86-1.51c-2.17,0-3.17,1.13-3.17,2.45,0,1.63,1.76,2.23,3.67,2.95,2.48.94,5.21,1.94,5.21,5.17,0,2.76-2.2,5.06-6.21,5.06A10.27,10.27,0,0,1,177.72,279Z"/><path class="cls-1" d="M203.54,275.68v-9.45H201v-2.16l2.67-.16.34-4.8h2.39v4.8H211v2.32H206.4v9.51c0,2.1.66,3.29,2.63,3.29a6.06,6.06,0,0,0,1.95-.44l.56,2.14a10.82,10.82,0,0,1-3.13.63C204.77,281.36,203.54,279.06,203.54,275.68Z"/><path class="cls-1" d="M222.46,276.52c0-3.7,3.24-5.55,10.48-6.37,0-2.19-.72-4.29-3.51-4.29a9.34,9.34,0,0,0-5.11,1.82l-1.13-2a12.84,12.84,0,0,1,6.71-2.23c4.14,0,5.9,2.8,5.9,7V281h-2.35l-.26-2h-.09a9.13,9.13,0,0,1-5.65,2.45C224.6,281.36,222.46,279.6,222.46,276.52Zm10.48.29V272c-5.74.69-7.68,2.1-7.68,4.3,0,1.94,1.31,2.72,3,2.72S231.28,278.28,232.94,276.81Z"/><path class="cls-1" d="M250.42,274.7V263.91h2.86v10.45c0,3.17.94,4.52,3.2,4.52,1.75,0,3-.85,4.61-2.89V263.91h2.85v17h-2.38l-.22-2.67h-.09c-1.6,1.85-3.3,3.08-5.65,3.08C252,281.36,250.42,279,250.42,274.7Z"/><path class="cls-1" d="M279.1,263.91h2.36l.25,3.11h.09c1.19-2.17,2.92-3.55,4.83-3.55a3.66,3.66,0,0,1,1.82.38l-.53,2.51a4,4,0,0,0-1.66-.28c-1.42,0-3.17,1-4.3,3.92V281H279.1Z"/><path class="cls-1" d="M298.78,276.52c0-3.7,3.23-5.55,10.48-6.37,0-2.19-.73-4.29-3.52-4.29a9.39,9.39,0,0,0-5.11,1.82l-1.13-2a12.84,12.84,0,0,1,6.71-2.23c4.14,0,5.9,2.8,5.9,7V281h-2.35l-.25-2h-.1a9.11,9.11,0,0,1-5.64,2.45C300.91,281.36,298.78,279.6,298.78,276.52Zm10.48.29V272c-5.75.69-7.69,2.1-7.69,4.3,0,1.94,1.32,2.72,3,2.72S307.59,278.28,309.26,276.81Z"/><path class="cls-1" d="M327,263.91h2.36l.25,2.45h.09c1.63-1.6,3.39-2.89,5.71-2.89,3.58,0,5.21,2.32,5.21,6.68V281h-2.85V270.53c0-3.2-1-4.55-3.24-4.55-1.75,0-3,.88-4.67,2.61V281H327Z"/><path class="cls-1" d="M356,275.68v-9.45H353.5v-2.16l2.67-.16.34-4.8h2.39v4.8h4.61v2.32H358.9v9.51c0,2.1.66,3.29,2.63,3.29a6.06,6.06,0,0,0,2-.44l.56,2.14a10.82,10.82,0,0,1-3.13.63C357.27,281.36,356,279.06,356,275.68Z"/><path class="cls-1" d="M375,272.44c0-5.52,3.73-9,7.68-9,4.33,0,6.78,3.14,6.78,8a11.5,11.5,0,0,1-.12,1.63H377.88c.19,3.64,2.42,6,5.65,6a7.42,7.42,0,0,0,4.27-1.34l1,1.88a10.13,10.13,0,0,1-5.64,1.76C378.67,281.36,375,278.06,375,272.44ZM387,271c0-3.42-1.57-5.27-4.23-5.27-2.42,0-4.55,1.95-4.9,5.27Z"/><path class="cls-1" d="M213.72,175.22H175.26v-5.54c6.13-.75,10.15-2.1,12.29-4.13,1.53-1.52,2.53-3.84,3.06-7.06,1.12.87,2.33,1.87,3.61,2.91l.61.49C200.22,166.27,206.82,171.64,213.72,175.22Z"/><path class="cls-1" d="M352.93,42.14V84.43h-6.24c-3.59-11-8.73-19.57-15.26-25.54a35.45,35.45,0,0,0-24.59-9.54,33,33,0,0,0-15.54,3.54,65.7,65.7,0,0,0-13.77-7.1,59.22,59.22,0,0,1,33.34-2.52,97.55,97.55,0,0,1,14.26,4.32l1,.35c5.46,2,9.18,3,11.37,3a7.28,7.28,0,0,0,5.87-3,14.12,14.12,0,0,0,2.51-5.74Z"/><path class="cls-1" d="M311.18,110.14c0,.43,0,.87,0,1.3l-.57,9.33c-1.79,15.86-7.93,28.54-18.22,37.69a52.19,52.19,0,0,1-4.21,3.37,23.86,23.86,0,0,1-5.37-7.1c-2.52-4.94-4.35-12-5.44-20.87-.09-1.16-.15-2.23-.2-3.22a18.77,18.77,0,0,0,4.92-1.22,18.15,18.15,0,0,0,6.12-4,20.06,20.06,0,0,0,4.62-6.94,22.65,22.65,0,0,0,1.55-8.41c0-6-1.81-11-5.39-14.84a18.09,18.09,0,0,0-11.18-5.79c-.28-2.37-.62-4.62-1-6.69-1.45-7.89-3.7-14.16-6.68-18.63a27.9,27.9,0,0,0-11.75-9.87c-5.19-2.38-11.59-3.59-19-3.59s-12.31,1-15,3.27-4.11,7-4.11,14.16v84.16c0,7.4,1.35,12.09,4.12,14.35s7.59,3.32,15,3.32a49.46,49.46,0,0,0,15.44-2.21,32.47,32.47,0,0,0,6.68,5.3,119.16,119.16,0,0,1-24,2.24c-15.14,0-27.12-9.49-38.7-18.66-3.06-2.43-5.82-4.61-8.61-6.62-5.89-4.23-13-8.56-20.83-8.56-10.21,0-14.82,4-16.89,7.39-1.92,3.12-2.54,7.14-1.81,11.62l-4.33,3.69c-5-4.76-6.76-10.75-5.17-17.81,1.93-8.61,7-14.31,14.76-16.49,11.44-3.24,25.35,1.79,31.67,8.3l2.58,2.66a.51.51,0,0,0,.55.11.49.49,0,0,0,.31-.46V68.06c0-6.54-1.15-10.83-3.52-13.13-2.09-2-6.1-3.34-12.26-4.09V45.3h62.25c11.79,0,22.3,1.36,31.26,4a64.08,64.08,0,0,1,19,9,53.12,53.12,0,0,1,4.6,3.63C304.86,73,311.18,89.16,311.18,110.14Z"/><path class="cls-1" d="M373.56,113.64v5.56c-6.09.8-10,2.15-12,4.13-2.21,2.19-3.28,6.47-3.28,13.07v41.78H351l-1.57-5.34-.09-.36c-1.93-5.94-4.4-8.83-7.55-8.83-1.16,0-2.89.62-7.57,3.64-2.07,1.37-3.78,2.48-5.07,3.31a49.63,49.63,0,0,1-13.45,5.77,60.91,60.91,0,0,1-15.62,2,64.93,64.93,0,0,1-23.46-4,52,52,0,0,1-6.4-3A56.76,56.76,0,0,1,258.72,163l-.9-.87a65.66,65.66,0,0,1-15-22.89,79.7,79.7,0,0,1-5.15-29.15,79.05,79.05,0,0,1,5.07-28.74,63.75,63.75,0,0,1,13.22-21,23.66,23.66,0,0,1,8.66,7.76c3.19,4.79,5.47,12,6.76,21.34a17.9,17.9,0,0,0-10.64,5.72c-3.56,3.87-5.36,8.86-5.36,14.83a22.82,22.82,0,0,0,1.53,8.41,20.07,20.07,0,0,0,4.57,6.94,18.34,18.34,0,0,0,9.76,5.06c.28,3.24.65,6.35,1.12,9.26l0,.13c1.18,7.36,2.95,13.38,5.25,17.88a27.21,27.21,0,0,0,7.51,9.3c4.6,3.57,10.44,5.38,17.37,5.38,9.82,0,17.12-3,21.71-8.89S331,148.63,331,136.4c0-6.72-1.16-11.1-3.54-13.38s-5.2-3.19-10.7-3.72c.19-1.94.32-3.84.39-5.67C325,113.62,355.28,113.63,373.56,113.64Z"/><path class="cls-1" d="M285.3,98.6a13.36,13.36,0,0,0-3.46-2.72,13.23,13.23,0,0,0-4.16-1.43c-.46-.08-.95-.14-1.49-.18-.28,0-.58,0-.88,0h-.59a8.12,8.12,0,0,0-.86,0,13.34,13.34,0,0,0-1.47.14,13.11,13.11,0,0,0-7.93,4.2c-2.69,2.91-4,6.75-4,11.44a17.87,17.87,0,0,0,1.18,6.58,15.34,15.34,0,0,0,3.43,5.22,13.65,13.65,0,0,0,4.47,2.93,13.14,13.14,0,0,0,2.05.63,10.24,10.24,0,0,0,1.46.25c.2,0,.38,0,.57.06s.6.05.88.05h.6a12.6,12.6,0,0,0,1.43-.09,14,14,0,0,0,3.76-.9,13.4,13.4,0,0,0,4.45-3,15,15,0,0,0,3.47-5.22,17.61,17.61,0,0,0,1.21-6.57C289.37,105.36,288,101.51,285.3,98.6Zm-6.77,20.83a4.34,4.34,0,0,1-1.37,2l-.06.06a3.4,3.4,0,0,1-1.83.67,2.1,2.1,0,0,1-.4,0,3.67,3.67,0,0,1-.75-.07,3,3,0,0,1-.54-.13,3.47,3.47,0,0,1-1.25-.76,4.58,4.58,0,0,1-1.15-1.78,14,14,0,0,1-.64-3,60.14,60.14,0,0,1-.29-6.43c0-4.68.3-7.77.93-9.46a4.67,4.67,0,0,1,.9-1.54,3.34,3.34,0,0,1,1.77-1.11,3.4,3.4,0,0,1,1.29-.1,1.73,1.73,0,0,1,.41,0,3.11,3.11,0,0,1,1.32.49,4.24,4.24,0,0,1,1.66,2.22c.05.13.1.29.16.46,0,0,0,0,0,.06a35.36,35.36,0,0,1,.77,8.94C279.47,114.67,279.16,117.75,278.53,119.43Z"/><path class="cls-1" d="M52,244.45H42.81v-1.62a6.09,6.09,0,0,0,3.39-1.13,2.84,2.84,0,0,0,.67-1.19,31.45,31.45,0,0,1,2.5,2A16.79,16.79,0,0,0,52,244.45Z"/><path class="cls-1" d="M75.14,213.19h0c-3.45-3.05-8.55-4.6-15.15-4.6H42.81v1.62a6.09,6.09,0,0,1,3.39,1.12c.64.62.95,1.79.95,3.57v18.9a.49.49,0,0,1-.31.46.51.51,0,0,1-.55-.11c-1.88-1.95-5.95-2.86-8.87-2a5.39,5.39,0,0,0-4,4.27,5.07,5.07,0,0,0,1.88,5.34l1-.81a4.72,4.72,0,0,1,.53-4.05c.6-.8,1.85-1.75,4.44-1.75,2.14,0,4.09,1.18,5.7,2.34.78.57,1.55,1.18,2.37,1.82,3.19,2.53,6.5,5.15,10.68,5.15,6.59,0,11.68-1.56,15.15-4.62s5.19-7.55,5.19-13.34S78.58,216.21,75.14,213.19Zm-6.21,26h0c-1.65,2.46-4.49,3.71-8.43,3.71-2,0-3.36-.3-4.1-.9s-1.11-1.89-1.11-3.92V214.89c0-2,.36-3.23,1.11-3.85s2-.89,4.1-.89c4,0,6.79,1.24,8.42,3.68s2.42,6.66,2.42,12.65S70.53,236.73,68.93,239.16Z"/></svg>