<svg id="Capa_1" data-name="Capa 1" xmlns="http://www.w3.org/2000/svg" viewBox="0 0 287.51 217.81"><defs><style>.cls-1{fill:#fff;}</style></defs><title>logo vito</title><path class="cls-1" d="M102.58,175.22H64.12v-5.54c6.13-.75,10.15-2.1,12.29-4.13,1.53-1.52,2.53-3.84,3.06-7.06,1.12.87,2.33,1.87,3.61,2.91l.61.49C89.08,166.27,95.68,171.64,102.58,175.22Z"/><path class="cls-1" d="M241.79,42.14V84.43h-6.24c-3.59-11-8.73-19.57-15.26-25.54a35.45,35.45,0,0,0-24.59-9.54,33,33,0,0,0-15.54,3.54,65.7,65.7,0,0,0-13.77-7.1,59.22,59.22,0,0,1,33.34-2.52A97.55,97.55,0,0,1,214,47.59l1,.35c5.46,2,9.18,3,11.37,3a7.28,7.28,0,0,0,5.87-3,14.12,14.12,0,0,0,2.51-5.74Z"/><path class="cls-1" d="M200,110.14c0,.43,0,.87,0,1.3l-.57,9.33c-1.79,15.86-7.93,28.54-18.22,37.69a52.19,52.19,0,0,1-4.21,3.37,23.86,23.86,0,0,1-5.37-7.1c-2.52-4.94-4.35-12-5.44-20.87-.09-1.16-.15-2.23-.2-3.22a18.77,18.77,0,0,0,4.92-1.22,18.15,18.15,0,0,0,6.12-4,20.06,20.06,0,0,0,4.62-6.94,22.65,22.65,0,0,0,1.55-8.41c0-6-1.81-11-5.39-14.84a18.09,18.09,0,0,0-11.18-5.79c-.28-2.37-.62-4.62-1-6.69C164.2,74.83,162,68.56,159,64.09a27.9,27.9,0,0,0-11.75-9.87c-5.19-2.38-11.59-3.59-19-3.59s-12.31,1-15,3.27-4.11,7-4.11,14.16v84.16c0,7.4,1.35,12.09,4.12,14.35s7.59,3.32,15,3.32a49.46,49.46,0,0,0,15.44-2.21,32.47,32.47,0,0,0,6.68,5.3,119.16,119.16,0,0,1-24,2.24c-15.14,0-27.12-9.49-38.7-18.66-3.06-2.43-5.82-4.61-8.61-6.62-5.89-4.23-13-8.56-20.83-8.56-10.21,0-14.82,4-16.89,7.39-1.92,3.12-2.54,7.14-1.81,11.62l-4.33,3.69c-5-4.76-6.76-10.75-5.17-17.81,1.93-8.61,7-14.31,14.76-16.49,11.44-3.24,25.35,1.79,31.67,8.3L79,140.74a.51.51,0,0,0,.55.11.49.49,0,0,0,.31-.46V68.06c0-6.54-1.15-10.83-3.52-13.13-2.09-2-6.1-3.34-12.26-4.09V45.3h62.25c11.79,0,22.3,1.36,31.26,4a64.08,64.08,0,0,1,19,9,53.12,53.12,0,0,1,4.6,3.63C193.72,73,200,89.16,200,110.14Z"/><path class="cls-1" d="M262.42,113.64v5.56c-6.09.8-10,2.15-12,4.13-2.21,2.19-3.28,6.47-3.28,13.07v41.78h-7.36l-1.57-5.34-.09-.36c-1.93-5.94-4.4-8.83-7.55-8.83-1.16,0-2.89.62-7.57,3.64-2.07,1.37-3.78,2.48-5.07,3.31a49.63,49.63,0,0,1-13.45,5.77,60.91,60.91,0,0,1-15.62,2,64.93,64.93,0,0,1-23.46-4,52,52,0,0,1-6.4-3A56.76,56.76,0,0,1,147.58,163l-.9-.87a65.66,65.66,0,0,1-15-22.89,79.7,79.7,0,0,1-5.15-29.15,79.05,79.05,0,0,1,5.07-28.74,63.75,63.75,0,0,1,13.22-21,23.66,23.66,0,0,1,8.66,7.76c3.19,4.79,5.47,12,6.76,21.34a17.9,17.9,0,0,0-10.64,5.72c-3.56,3.87-5.36,8.86-5.36,14.83a22.82,22.82,0,0,0,1.53,8.41,20.07,20.07,0,0,0,4.57,6.94,18.34,18.34,0,0,0,9.76,5.06c.28,3.24.65,6.35,1.12,9.26l0,.13c1.18,7.36,2.95,13.38,5.25,17.88A27.21,27.21,0,0,0,174,167c4.6,3.57,10.44,5.38,17.37,5.38,9.82,0,17.12-3,21.71-8.89s6.75-14.88,6.75-27.11c0-6.72-1.16-11.1-3.54-13.38s-5.2-3.19-10.7-3.72c.19-1.94.32-3.84.39-5.67C213.87,113.62,244.14,113.63,262.42,113.64Z"/><path class="cls-1" d="M174.16,98.6a13.36,13.36,0,0,0-3.46-2.72,13.23,13.23,0,0,0-4.16-1.43c-.46-.08-.95-.14-1.49-.18-.28,0-.58,0-.88,0h-.59a8.12,8.12,0,0,0-.86,0,13.34,13.34,0,0,0-1.47.14,13.11,13.11,0,0,0-7.93,4.2c-2.69,2.91-4,6.75-4,11.44a17.87,17.87,0,0,0,1.18,6.58,15.34,15.34,0,0,0,3.43,5.22,13.65,13.65,0,0,0,4.47,2.93,13.14,13.14,0,0,0,2.05.63,10.24,10.24,0,0,0,1.46.25c.2,0,.38,0,.57.06s.6.05.88.05h.6a12.6,12.6,0,0,0,1.43-.09,14,14,0,0,0,3.76-.9,13.4,13.4,0,0,0,4.45-3,15,15,0,0,0,3.47-5.22,17.61,17.61,0,0,0,1.21-6.57C178.23,105.36,176.86,101.51,174.16,98.6Zm-6.77,20.83a4.34,4.34,0,0,1-1.37,2l-.06.06a3.4,3.4,0,0,1-1.83.67,2.1,2.1,0,0,1-.4,0,3.67,3.67,0,0,1-.75-.07,3,3,0,0,1-.54-.13,3.47,3.47,0,0,1-1.25-.76,4.58,4.58,0,0,1-1.15-1.78,14,14,0,0,1-.64-3,60.14,60.14,0,0,1-.29-6.43c0-4.68.3-7.77.93-9.46a4.67,4.67,0,0,1,.9-1.54,3.34,3.34,0,0,1,1.77-1.11,3.4,3.4,0,0,1,1.29-.1,1.73,1.73,0,0,1,.41,0,3.11,3.11,0,0,1,1.32.49,4.24,4.24,0,0,1,1.66,2.22c.05.13.1.29.16.46,0,0,0,0,0,.06a35.36,35.36,0,0,1,.77,8.94C168.33,114.67,168,117.75,167.39,119.43Z"/></svg>