<svg id="Capa_1" data-name="Capa 1" xmlns="http://www.w3.org/2000/svg" viewBox="0 0 509.76 314.28"><defs><style>.cls-1{fill:#f9ae00;}</style></defs><title>logo vito</title><path class="cls-1" d="M108.05,231.35H92.13c0,.23,0,.48,0,.76s0,.66,0,1.17q0,5,1.39,7.34A4.64,4.64,0,0,0,97.78,243a6.84,6.84,0,0,0,4.25-1.51,12.61,12.61,0,0,0,3.4-4.33l2.37.84a12.12,12.12,0,0,1-4.52,5.84,13,13,0,0,1-7.3,1.95,12.55,12.55,0,0,1-4.76-.89,12.22,12.22,0,0,1-4-2.54,13.27,13.27,0,0,1-3.08-4.65,15.7,15.7,0,0,1-1.06-5.86,14.36,14.36,0,0,1,3.59-10.11,12,12,0,0,1,9.26-3.9,11.33,11.33,0,0,1,8.75,3.6q3.31,3.6,3.32,9.6Zm-16-2.32h7.63v-.46c0-3-.29-5.21-.88-6.5a3,3,0,0,0-2.92-1.94A2.93,2.93,0,0,0,93.06,222C92.49,223.32,92.17,225.65,92.08,229Z"/><path class="cls-1" d="M113.92,212.7a3.48,3.48,0,0,0-.61-2.4,3.26,3.26,0,0,0-2.28-.68v-2.3c1.6-.06,3.27-.19,5-.39s3.69-.48,5.78-.84v33a4.39,4.39,0,0,0,.55,2.61,3.37,3.37,0,0,0,2.14.94V245H111.28v-2.32a3.38,3.38,0,0,0,2.11-.91,4.6,4.6,0,0,0,.53-2.64Z"/><path class="cls-1" d="M127.61,245v-2.32a3.35,3.35,0,0,0,2.11-.91,4.6,4.6,0,0,0,.53-2.64V224a3.63,3.63,0,0,0-.56-2.42,3.39,3.39,0,0,0-2.25-.62v-2.37c1.68-.08,3.42-.18,5.23-.32s3.66-.29,5.57-.49v21.27a4.6,4.6,0,0,0,.53,2.64,3.34,3.34,0,0,0,2.09.91V245Zm1.63-35a3.51,3.51,0,0,1,1.24-2.75,5.07,5.07,0,0,1,6.32,0,3.48,3.48,0,0,1,1.27,2.74,3.38,3.38,0,0,1-1.22,2.69,4.82,4.82,0,0,1-3.22,1,4.7,4.7,0,0,1-3.18-1A3.37,3.37,0,0,1,129.24,209.94Z"/><path class="cls-1" d="M168,239.25a14.91,14.91,0,0,1-4.95,4.9,12.54,12.54,0,0,1-6.4,1.66,12.1,12.1,0,0,1-9.28-3.84,14,14,0,0,1-3.58-9.95,14.18,14.18,0,0,1,3.79-10.31,13.3,13.3,0,0,1,10-3.9,11.54,11.54,0,0,1,7.22,2.17,6.56,6.56,0,0,1,2.85,5.4,4,4,0,0,1-1.15,3,4.18,4.18,0,0,1-3,1.11,3.93,3.93,0,0,1-2.71-.93,3.05,3.05,0,0,1-1-2.4,3.57,3.57,0,0,1,.33-1.51,4.23,4.23,0,0,1,1-1.33l.84-.79a1.4,1.4,0,0,0,.31-.38,1,1,0,0,0,.11-.43c0-.36-.37-.72-1.1-1.06a5.84,5.84,0,0,0-2.55-.52,4.94,4.94,0,0,0-4.63,2.59q-1.47,2.59-1.47,8.19c0,3.88.53,6.76,1.58,8.62a5.22,5.22,0,0,0,4.88,2.8,6.68,6.68,0,0,0,3.56-1.11,15.52,15.52,0,0,0,3.58-3.3Z"/><path class="cls-1" d="M170.39,245v-2.32a3.38,3.38,0,0,0,2.11-.91,4.6,4.6,0,0,0,.53-2.64V224a3.63,3.63,0,0,0-.56-2.42,3.4,3.4,0,0,0-2.26-.62v-2.37c1.68-.08,3.42-.18,5.24-.32s3.66-.29,5.57-.49v21.27a4.6,4.6,0,0,0,.53,2.64,3.31,3.31,0,0,0,2.08.91V245Zm1.63-35a3.51,3.51,0,0,1,1.24-2.75,4.6,4.6,0,0,1,3.15-1.1,4.66,4.66,0,0,1,3.17,1.11,3.51,3.51,0,0,1,1.27,2.74,3.38,3.38,0,0,1-1.22,2.69,4.82,4.82,0,0,1-3.22,1,4.74,4.74,0,0,1-3.19-1A3.39,3.39,0,0,1,172,209.94Z"/><path class="cls-1" d="M202.51,241.52a18.22,18.22,0,0,1-4.5,3.17,10.52,10.52,0,0,1-4.51,1.07,7.07,7.07,0,0,1-5.08-1.9,6.38,6.38,0,0,1-2-4.83,7.21,7.21,0,0,1,3.84-6.47q3.84-2.31,11.73-2.93V226c0-2.29-.35-3.85-1.06-4.7S199,220,197.25,220a5.24,5.24,0,0,0-2,.36c-.58.24-.86.49-.86.75a1.2,1.2,0,0,0,.15.3c0,.08.08.14.09.17l.72,1.11a2.9,2.9,0,0,1,.36.85,4,4,0,0,1,.13,1,3.13,3.13,0,0,1-1.11,2.46,4.76,4.76,0,0,1-5.84-.06,3.5,3.5,0,0,1-1.14-2.72c0-1.87,1-3.42,3-4.63a14.61,14.61,0,0,1,7.74-1.83q5.78,0,8.51,2.42t2.74,7.55v12.73a1.67,1.67,0,0,0,.25,1,.88.88,0,0,0,.76.33,2.74,2.74,0,0,0,1-.27,2.77,2.77,0,0,1,.85-.27.71.71,0,0,1,.53.26.82.82,0,0,1,.23.58c0,.72-.61,1.46-1.82,2.22a7.24,7.24,0,0,1-3.9,1.13,4.93,4.93,0,0,1-3.13-1A6.24,6.24,0,0,1,202.51,241.52Zm-.52-9.75a12.6,12.6,0,0,0-5.85,2.06,4.76,4.76,0,0,0-1.92,3.94,3.6,3.6,0,0,0,.94,2.64,3.43,3.43,0,0,0,2.59,1,3.57,3.57,0,0,0,3.28-1.74,10.73,10.73,0,0,0,1.06-5.39c0-.28,0-.58,0-.91S202,232.48,202,231.77Z"/><path class="cls-1" d="M216.42,245.39V236h2.3a17.64,17.64,0,0,0,3.77,5.62,6.45,6.45,0,0,0,4.44,1.75,4.77,4.77,0,0,0,3.15-1,3.29,3.29,0,0,0,1.22-2.63q0-2.46-5.21-4.44l-.84-.32q-5.2-2-7.24-4.06a7,7,0,0,1-2-5.12,7.38,7.38,0,0,1,2.48-5.76,9.29,9.29,0,0,1,6.47-2.23,12.73,12.73,0,0,1,4.37.84,22.61,22.61,0,0,0,2.49.84,1.32,1.32,0,0,0,1-.36,1.8,1.8,0,0,0,.51-1h2.12v8h-2.22a11.86,11.86,0,0,0-3.17-4.49,6.39,6.39,0,0,0-4.16-1.53,5.32,5.32,0,0,0-3.22.9,2.8,2.8,0,0,0-1.22,2.36q0,2.24,5.28,4.14l.94.35q5.55,2,7.6,4.07a7.08,7.08,0,0,1,2,5.23,8.2,8.2,0,0,1-2.46,6.25,9.27,9.27,0,0,1-6.62,2.33,16.21,16.21,0,0,1-5.25-.91c-1.79-.61-2.72-.91-2.79-.91a1.36,1.36,0,0,0-.93.38,3.27,3.27,0,0,0-.79,1.07Z"/><path class="cls-1" d="M284.76,220a15.89,15.89,0,0,0-4.17-7.17,9.18,9.18,0,0,0-6.39-2.48,7.7,7.7,0,0,0-7.13,4q-2.32,4-2.32,12.29,0,9,1.91,12.71a6.59,6.59,0,0,0,6.36,3.74q3.8,0,5.53-2.23t1.74-7.12c0-1.68-.26-2.77-.8-3.28s-1.76-.83-3.69-1v-2.57h17.3v2.57c-1.81.2-3,.54-3.46,1s-.74,1.56-.74,3.2v12h-3l-.57-1.92v0c-.44-1.36-1-2.05-1.55-2.05a5.33,5.33,0,0,0-1.78.92l-1.41.91a14.1,14.1,0,0,1-3.84,1.65,17.12,17.12,0,0,1-4.45.57,18.18,18.18,0,0,1-6.64-1.15,15.58,15.58,0,0,1-5.35-3.46,18.64,18.64,0,0,1-4.24-6.49,22.39,22.39,0,0,1-1.45-8.22,22.1,22.1,0,0,1,1.43-8.1,18.14,18.14,0,0,1,4.21-6.43A16.36,16.36,0,0,1,272,207.2a16.65,16.65,0,0,1,3.47.37,27.94,27.94,0,0,1,4,1.21l.29.1a10.48,10.48,0,0,0,2.94.79,1.46,1.46,0,0,0,1.18-.63,3.84,3.84,0,0,0,.67-1.79h2.93V220Z"/><path class="cls-1" d="M308,245.76a12.64,12.64,0,0,1-4.79-.89,11.91,11.91,0,0,1-4-2.61,13.39,13.39,0,0,1-3.05-4.63,15.63,15.63,0,0,1-1-5.81,14.35,14.35,0,0,1,3.58-10.11,13,13,0,0,1,18.54,0,14.32,14.32,0,0,1,3.61,10.11,15.7,15.7,0,0,1-1.06,5.8,13.3,13.3,0,0,1-3.09,4.64,12,12,0,0,1-4,2.63A12.79,12.79,0,0,1,308,245.76Zm0-2.37a3.23,3.23,0,0,0,3.17-2.4c.6-1.61.9-4.66.9-9.17s-.3-7.61-.9-9.22a3.31,3.31,0,0,0-6.37,0q-.9,2.42-.9,9.22c0,4.51.3,7.56.9,9.17A3.24,3.24,0,0,0,308,243.39Z"/><path class="cls-1" d="M341.52,224a3.71,3.71,0,0,0-.54-2.43,3.54,3.54,0,0,0-2.32-.61v-2.37q3-.17,5.64-.37c1.75-.13,3.44-.28,5.07-.44v21.73a3.71,3.71,0,0,0,.54,2.43,3.51,3.51,0,0,0,2.32.61l0,2.37c-1.95.11-3.73.24-5.37.37s-3.19.28-4.65.44v-5.62a15.12,15.12,0,0,1-4.24,4.22,9.16,9.16,0,0,1-4.86,1.4,5.82,5.82,0,0,1-5.3-2.54c-1.07-1.69-1.61-4.51-1.61-8.44V224a3.71,3.71,0,0,0-.54-2.43,3.65,3.65,0,0,0-2.35-.61v-2.37c2-.11,3.91-.23,5.66-.37s3.44-.28,5.05-.44v18.45a9.74,9.74,0,0,0,.6,4.15,2.23,2.23,0,0,0,2.14,1.11,3.86,3.86,0,0,0,3.46-2.24,12.44,12.44,0,0,0,1.27-6.15Z"/><path class="cls-1" d="M355.09,245v-2.32a3.33,3.33,0,0,0,2.11-.91,4.52,4.52,0,0,0,.53-2.64V224a3.73,3.73,0,0,0-.53-2.46,3.58,3.58,0,0,0-2.28-.58v-2.37c1.92-.11,3.7-.23,5.33-.37s3.18-.28,4.66-.44v6.12a11.52,11.52,0,0,1,3.16-4.29,6.49,6.49,0,0,1,4.12-1.41A5.41,5.41,0,0,1,376,219.6a4.48,4.48,0,0,1,1.49,3.46,3.85,3.85,0,0,1-1.12,2.9,4,4,0,0,1-2.92,1.1,3.57,3.57,0,0,1-2.38-.8,2.48,2.48,0,0,1-.95-2,1.47,1.47,0,0,1,0-.28,3,3,0,0,1,.08-.36l.24-1.06a.85.85,0,0,0,0-.17,1.85,1.85,0,0,0,0-.25.67.67,0,0,0-.22-.54.94.94,0,0,0-.64-.2c-1,0-1.94,1-2.8,2.94a18,18,0,0,0-1.3,7.3v7.43a4.64,4.64,0,0,0,.62,2.76,2.49,2.49,0,0,0,2.07.79h1.26V245Z"/><path class="cls-1" d="M395.21,245v-2.32a3.11,3.11,0,0,0,2.12-.87,4.45,4.45,0,0,0,.56-2.68V227.73a9.54,9.54,0,0,0-.61-4.15,2.22,2.22,0,0,0-2.12-1.11,4,4,0,0,0-3.52,2.23,12.36,12.36,0,0,0-1.29,6.16v8.22a4.45,4.45,0,0,0,.56,2.68,3.11,3.11,0,0,0,2.12.87V245H379.89v-2.32a3.32,3.32,0,0,0,2.1-.91,4.51,4.51,0,0,0,.54-2.64V224a3.61,3.61,0,0,0-.57-2.4,3.36,3.36,0,0,0-2.25-.64v-2.37c1.93-.11,3.7-.23,5.33-.37s3.18-.28,4.66-.44v6a14.51,14.51,0,0,1,4.25-4.19,9.08,9.08,0,0,1,4.83-1.41,6.45,6.45,0,0,1,4.21,1.32,6.92,6.92,0,0,1,2.23,3.93,14.89,14.89,0,0,1,4.21-4,9.11,9.11,0,0,1,4.67-1.29,5.83,5.83,0,0,1,5.31,2.55c1.08,1.7,1.63,4.52,1.63,8.45v9.85a4.52,4.52,0,0,0,.53,2.64,3.29,3.29,0,0,0,2.08.91V245H410.58v-2.32a3.06,3.06,0,0,0,2.08-.87,4.67,4.67,0,0,0,.53-2.68V227.73a9.74,9.74,0,0,0-.6-4.15,2.21,2.21,0,0,0-2.11-1.11,3.87,3.87,0,0,0-3.49,2.22,12.47,12.47,0,0,0-1.27,6.17v8.22a4.69,4.69,0,0,0,.54,2.7,3,3,0,0,0,2.07.85l0,2.32Z"/><path class="cls-1" d="M451.36,231.35H435.44c0,.23,0,.48,0,.76s0,.66,0,1.17q0,5,1.39,7.34a4.63,4.63,0,0,0,4.31,2.35,6.84,6.84,0,0,0,4.25-1.51,12.61,12.61,0,0,0,3.4-4.33l2.37.84a12.12,12.12,0,0,1-4.52,5.84,13,13,0,0,1-7.3,1.95,12.55,12.55,0,0,1-4.76-.89,12.22,12.22,0,0,1-3.95-2.54,13.13,13.13,0,0,1-3.08-4.65,15.7,15.7,0,0,1-1.06-5.86A14.31,14.31,0,0,1,430,221.71a12,12,0,0,1,9.26-3.9,11.33,11.33,0,0,1,8.75,3.6q3.31,3.6,3.32,9.6Zm-16-2.32H443v-.46a17.21,17.21,0,0,0-.88-6.5,3,3,0,0,0-2.92-1.94,2.93,2.93,0,0,0-2.85,1.91C435.8,223.32,435.48,225.65,435.39,229Z"/><path class="cls-1" d="M457.13,220.94h-3v-2.32a10,10,0,0,0,5.14-3.49,18,18,0,0,0,3-6.92H465v10.41h5.92v2.32H465v15.27a12,12,0,0,0,.43,3.79c.29.8.74,1.2,1.34,1.2s1.26-.54,1.69-1.61a16,16,0,0,0,.88-4.73l2.39,0v.37q0,5.09-2.07,7.82a7,7,0,0,1-5.92,2.74q-3.53,0-5-2.12c-1-1.41-1.52-3.79-1.52-7.13Z"/><path class="cls-1" d="M124.06,257.92h7.22c4.67,0,8,1.69,8,6.49a6.25,6.25,0,0,1-5.21,6.47L140,281h-3.3l-5.58-9.76H127V281h-2.92Zm6.78,10.92c3.61,0,5.58-1.45,5.58-4.43s-2-4.11-5.58-4.11H127v8.54Z"/><path class="cls-1" d="M151.55,272.44c0-5.52,3.73-9,7.68-9,4.33,0,6.78,3.14,6.78,8a11.5,11.5,0,0,1-.12,1.63H154.4c.19,3.64,2.42,6,5.65,6a7.42,7.42,0,0,0,4.27-1.34l1,1.88a10.13,10.13,0,0,1-5.65,1.76C155.19,281.36,151.55,278.06,151.55,272.44ZM163.5,271c0-3.42-1.57-5.27-4.23-5.27-2.42,0-4.55,1.95-4.9,5.27Z"/><path class="cls-1" d="M177.72,279l1.41-1.88a7.75,7.75,0,0,0,5.05,2c2.26,0,3.36-1.19,3.36-2.67,0-1.76-2-2.51-3.89-3.23-2.39-.88-5-2-5-4.93,0-2.69,2.2-4.83,5.9-4.83a8.64,8.64,0,0,1,5.27,1.92l-1.38,1.85a6.22,6.22,0,0,0-3.86-1.51c-2.17,0-3.17,1.13-3.17,2.45,0,1.63,1.76,2.23,3.67,2.95,2.48.94,5.21,1.94,5.21,5.17,0,2.76-2.2,5.06-6.21,5.06A10.27,10.27,0,0,1,177.72,279Z"/><path class="cls-1" d="M203.54,275.68v-9.45H201v-2.16l2.67-.16.34-4.8h2.39v4.8H211v2.32H206.4v9.51c0,2.1.66,3.29,2.63,3.29a6.06,6.06,0,0,0,1.95-.44l.56,2.14a10.82,10.82,0,0,1-3.13.63C204.77,281.36,203.54,279.06,203.54,275.68Z"/><path class="cls-1" d="M222.46,276.52c0-3.7,3.24-5.55,10.48-6.37,0-2.19-.72-4.29-3.51-4.29a9.34,9.34,0,0,0-5.11,1.82l-1.13-2a12.84,12.84,0,0,1,6.71-2.23c4.14,0,5.9,2.8,5.9,7V281h-2.35l-.26-2h-.09a9.13,9.13,0,0,1-5.65,2.45C224.6,281.36,222.46,279.6,222.46,276.52Zm10.48.29V272c-5.74.69-7.68,2.1-7.68,4.3,0,1.94,1.31,2.72,3,2.72S231.28,278.28,232.94,276.81Z"/><path class="cls-1" d="M250.42,274.7V263.91h2.86v10.45c0,3.17.94,4.52,3.2,4.52,1.75,0,3-.85,4.61-2.89V263.91h2.85v17h-2.38l-.22-2.67h-.09c-1.6,1.85-3.3,3.08-5.65,3.08C252,281.36,250.42,279,250.42,274.7Z"/><path class="cls-1" d="M279.1,263.91h2.36l.25,3.11h.09c1.19-2.17,2.92-3.55,4.83-3.55a3.66,3.66,0,0,1,1.82.38l-.53,2.51a4,4,0,0,0-1.66-.28c-1.42,0-3.17,1-4.3,3.92V281H279.1Z"/><path class="cls-1" d="M298.78,276.52c0-3.7,3.23-5.55,10.48-6.37,0-2.19-.73-4.29-3.52-4.29a9.39,9.39,0,0,0-5.11,1.82l-1.13-2a12.84,12.84,0,0,1,6.71-2.23c4.14,0,5.9,2.8,5.9,7V281h-2.35l-.25-2h-.1a9.11,9.11,0,0,1-5.64,2.45C300.91,281.36,298.78,279.6,298.78,276.52Zm10.48.29V272c-5.75.69-7.69,2.1-7.69,4.3,0,1.94,1.32,2.72,3,2.72S307.59,278.28,309.26,276.81Z"/><path class="cls-1" d="M327,263.91h2.36l.25,2.45h.09c1.63-1.6,3.39-2.89,5.71-2.89,3.58,0,5.21,2.32,5.21,6.68V281h-2.85V270.53c0-3.2-1-4.55-3.24-4.55-1.75,0-3,.88-4.67,2.61V281H327Z"/><path class="cls-1" d="M356,275.68v-9.45H353.5v-2.16l2.67-.16.34-4.8h2.39v4.8h4.61v2.32H358.9v9.51c0,2.1.66,3.29,2.63,3.29a6.06,6.06,0,0,0,2-.44l.56,2.14a10.82,10.82,0,0,1-3.13.63C357.27,281.36,356,279.06,356,275.68Z"/><path class="cls-1" d="M375,272.44c0-5.52,3.73-9,7.68-9,4.33,0,6.78,3.14,6.78,8a11.5,11.5,0,0,1-.12,1.63H377.88c.19,3.64,2.42,6,5.65,6a7.42,7.42,0,0,0,4.27-1.34l1,1.88a10.13,10.13,0,0,1-5.64,1.76C378.67,281.36,375,278.06,375,272.44ZM387,271c0-3.42-1.57-5.27-4.23-5.27-2.42,0-4.55,1.95-4.9,5.27Z"/><path class="cls-1" d="M215.87,175.72H174.76v-6.48c6.28-.73,10.34-2.05,12.44-4,1.57-1.57,2.57-4.07,3-7.62,1.45,1.1,3.07,2.43,4.85,3.88C201,166.25,208.3,172.21,215.87,175.72Z"/><path class="cls-1" d="M353.43,41.64V84.93h-7.1c-3.58-11.07-8.71-19.7-15.24-25.67a35,35,0,0,0-24.25-9.41,32.37,32.37,0,0,0-15.57,3.62,65.56,65.56,0,0,0-15.14-7.66l.14-.06a59.67,59.67,0,0,1,34.7-3,97,97,0,0,1,14.32,4.34l1,.35c5.4,2,9.06,3,11.2,3A6.79,6.79,0,0,0,343,47.57a14.07,14.07,0,0,0,2.5-5.93Z"/><path class="cls-1" d="M311.68,110.14c0,.43,0,.88,0,1.33l-.57,9.36c-1.81,16-8,28.76-18.39,38a53.25,53.25,0,0,1-4.57,3.64,24.31,24.31,0,0,1-5.79-7.51c-2.54-5-4.39-12.06-5.49-21.06-.1-1.36-.17-2.59-.22-3.71A18.52,18.52,0,0,0,281.9,129a17.83,17.83,0,0,0,6-3.93,19.4,19.4,0,0,0,4.5-6.77,22.08,22.08,0,0,0,1.52-8.22c0-5.85-1.77-10.72-5.26-14.5a17.57,17.57,0,0,0-11.26-5.68c-.29-2.49-.64-4.85-1.05-7-1.44-7.82-3.66-14-6.61-18.44a27.34,27.34,0,0,0-11.54-9.7c-5.13-2.35-11.46-3.54-18.8-3.54s-12.09,1-14.69,3.15-3.93,6.74-3.93,13.78v84.16c0,7.23,1.29,11.81,3.94,14s7.39,3.2,14.68,3.2a48.61,48.61,0,0,0,15.59-2.29,32.43,32.43,0,0,0,7.87,6.11,118.2,118.2,0,0,1-25.3,2.51c-15.31,0-27.36-9.54-39-18.77-3-2.35-5.76-4.56-8.59-6.6-5.83-4.19-12.83-8.47-20.54-8.47-10,0-14.46,3.89-16.46,7.15-1.91,3.11-2.47,7.16-1.7,11.56l-4.89,4.16c-4.45-4.07-7.56-10-5.64-18.59,2-8.8,7.19-14.63,15.11-16.86,11.63-3.29,25.75,1.82,32.17,8.43l2.58,2.66V68.06c0-6.4-1.1-10.57-3.37-12.77-2.06-2-6.13-3.28-12.41-4V44.8h62.75c11.82,0,22.39,1.36,31.4,4.05a64.74,64.74,0,0,1,19.17,9.08,55.18,55.18,0,0,1,4.64,3.66C305.3,72.67,311.68,89,311.68,110.14Z"/><path class="cls-1" d="M374.06,113.14v6.5c-6.23.78-10.2,2.11-12.12,4-2.11,2.1-3.13,6.26-3.13,12.72v42.28h-8.23L348.89,173l-.08-.33c-1.85-5.71-4.16-8.48-7.07-8.48-.93,0-2.45.43-7.29,3.56-2.08,1.37-3.79,2.48-5.08,3.31a50,50,0,0,1-13.59,5.83,61.31,61.31,0,0,1-15.75,2,65.46,65.46,0,0,1-23.64-4.07,53.44,53.44,0,0,1-6.46-3,56.61,56.61,0,0,1-11.55-8.42c-.3-.28-.61-.57-.91-.87a66.13,66.13,0,0,1-15.09-23.07,80.3,80.3,0,0,1-5.18-29.33,79.69,79.69,0,0,1,5.1-28.92,64.37,64.37,0,0,1,13.59-21.42,24.21,24.21,0,0,1,9.18,8.1c3.28,4.93,5.61,12.36,6.9,22a17.46,17.46,0,0,0-10.83,5.64c-3.47,3.77-5.23,8.65-5.23,14.49a22.21,22.21,0,0,0,1.5,8.23,19.46,19.46,0,0,0,4.45,6.76,18.12,18.12,0,0,0,5.95,3.92,17.88,17.88,0,0,0,3.92,1.07c.29,3.45.68,6.66,1.15,9.61l0,.13c1.18,7.32,2.93,13.28,5.2,17.73a26.72,26.72,0,0,0,7.38,9.14c4.51,3.5,10.25,5.27,17.06,5.27,9.65,0,16.83-2.93,21.32-8.7s6.64-14.68,6.64-26.8c0-6.58-1.11-10.84-3.38-13s-5.17-3.12-10.91-3.63c.24-2.33.39-4.55.46-6.62C323.75,113.12,355.44,113.13,374.06,113.14Z"/><path class="cls-1" d="M285.67,98.26a13.54,13.54,0,0,0-7.91-4.3,15.22,15.22,0,0,0-1.53-.19c-.3,0-.61,0-.92,0h-.59a9.1,9.1,0,0,0-.91,0,12.29,12.29,0,0,0-1.5.15,13.51,13.51,0,0,0-8.22,4.35q-4.18,4.53-4.18,11.78a18.1,18.1,0,0,0,1.22,6.76,15.5,15.5,0,0,0,3.54,5.39,13.94,13.94,0,0,0,4.63,3,13.13,13.13,0,0,0,2.13.66,12.53,12.53,0,0,0,1.51.26,6,6,0,0,0,.61.06c.3,0,.6.05.9.05h.6a15.7,15.7,0,0,0,5.37-1,13.9,13.9,0,0,0,4.62-3.06,15.53,15.53,0,0,0,3.59-5.4,18,18,0,0,0,1.24-6.75Q289.87,102.79,285.67,98.26Zm-7.61,21a3.77,3.77,0,0,1-1.26,1.81h0a2.87,2.87,0,0,1-1.56.57,2.22,2.22,0,0,1-.37,0,3.52,3.52,0,0,1-.66-.06,2.47,2.47,0,0,1-.47-.11,2.84,2.84,0,0,1-1.06-.65,4,4,0,0,1-1-1.6,13.61,13.61,0,0,1-.61-2.87v0a56.91,56.91,0,0,1-.29-6.34q0-6.86.9-9.29a4.4,4.4,0,0,1,.8-1.38,2.81,2.81,0,0,1,1.52-1,3.7,3.7,0,0,1,.9-.11h.19a2.71,2.71,0,0,1,.41,0,2.66,2.66,0,0,1,1.12.42,3.7,3.7,0,0,1,1.47,2c.05.13.1.28.15.44h0A35.09,35.09,0,0,1,279,110C279,114.57,278.67,117.64,278.06,119.26Z"/><path class="cls-1" d="M54.17,245H42.31v-2.57c1.83-.18,3-.53,3.54-1a3,3,0,0,0,.7-1.68,29.93,29.93,0,0,1,3.15,2.5A16.07,16.07,0,0,0,54.17,245Z"/><path class="cls-1" d="M75.47,212.81c-3.58-3.17-8.73-4.73-15.48-4.73H42.31v2.57c1.83.18,3,.52,3.54,1s.8,1.58.8,3.21v18.9c-3.16-3.26-12.35-4.14-13.71,2.51a5.64,5.64,0,0,0,2.39,6.08l1.51-1.28c-.85-2.77.09-5.47,4.4-5.47,1.85,0,3.61,1,5.41,2.25,3.83,2.76,7.89,7.06,13.34,7.06q10.12,0,15.48-4.75t5.36-13.71Q80.83,217.52,75.47,212.81Zm-7,26.08c-1.55,2.32-4.22,3.49-8,3.49-1.9,0-3.15-.27-3.78-.79s-.93-1.69-.93-3.53V214.89c0-1.8.31-2.95.93-3.47s1.88-.77,3.78-.77q5.69,0,8,3.46c1.54,2.31,2.33,6.43,2.33,12.37S70.05,236.55,68.51,238.89Z"/></svg>